<svg width="1150" height="685" viewBox="0 0 1150 685" fill="none" xmlns="http://www.w3.org/2000/svg">
<path d="M8.07358 266.871C-2.56117 277.323 -2.7087 294.418 7.74407 305.053C18.1968 315.688 35.2917 315.835 45.9264 305.382L8.07358 266.871ZM353.917 47.5995L327.681 41.2183L327.681 41.2183L353.917 47.5995ZM149.652 564.624L129.658 546.479H129.658L149.652 564.624ZM582.315 265.124L609.038 268.983L582.315 265.124ZM640.027 564.624L623.353 543.387L640.027 564.624ZM978.952 97.1924L968.677 72.224L978.952 97.1924ZM1118.27 468.892C1132.95 471.505 1146.97 461.721 1149.58 447.04C1152.2 432.359 1142.41 418.34 1127.73 415.727L1118.27 468.892ZM45.9264 305.382C104.584 247.728 190.871 167.055 259.496 111.84C294.454 83.7134 322.508 64.121 339.445 56.4725C343.489 54.6465 345.673 54.0822 346.345 53.965C347.449 53.7723 343.538 54.807 338.209 52.0031C331.375 48.4079 328.937 42.2535 328.418 39.2315C328.073 37.2205 328.618 37.3672 327.681 41.2183L380.152 53.9808C381.862 46.9511 383.089 38.536 381.639 30.0915C380.015 20.636 374.685 10.1763 363.351 4.21318C353.52 -0.958673 343.499 -0.354494 337.062 0.768816C330.192 1.96755 323.404 4.46582 317.221 7.25799C293.251 18.0823 260.339 41.8536 225.645 69.7673C154.968 126.633 67.2099 208.746 8.07358 266.871L45.9264 305.382ZM327.681 41.2183C325.244 51.2398 316.1 72.2693 300.272 103.359C284.953 133.449 264.73 170.415 241.996 210.988C196.852 291.561 141.42 387.014 97.4447 466.963C75.3741 507.089 55.8014 544 41.4394 573.994C34.266 588.976 28.2187 602.591 23.7783 614.232C19.5846 625.226 15.9307 636.692 15.0919 646.543C14.7035 651.103 14.4968 659.333 18.5439 667.52C20.8093 672.102 24.4661 676.752 29.9047 680.177C35.2895 683.568 40.9151 684.812 45.7144 684.979C54.3634 685.281 61.6911 682.171 66.1022 679.949C71.1116 677.426 76.1708 674.05 81.1341 670.311C100.506 655.719 129.447 627.063 169.646 582.769L129.658 546.479C89.3516 590.892 63.471 616.01 48.643 627.18C45.0565 629.882 42.8548 631.195 41.8132 631.72C40.1733 632.546 42.6598 630.84 47.5986 631.012C50.5428 631.115 54.5959 631.911 58.6811 634.483C62.8201 637.09 65.4501 640.551 66.9517 643.589C69.4711 648.685 68.7886 652.399 68.8971 651.125C69.052 649.306 70.2828 643.831 74.2323 633.477C77.9351 623.77 83.2896 611.63 90.144 597.315C103.838 568.716 122.825 532.867 144.76 492.988C188.795 412.929 243.154 319.396 289.106 237.384C311.921 196.665 332.572 158.938 348.394 127.859C363.708 97.7788 375.973 71.1613 380.152 53.9808L327.681 41.2183ZM169.646 582.769C250.416 493.77 320.684 411.663 379.593 343.7C438.915 275.262 485.96 222.072 521.316 189.302C539.254 172.675 552.217 163.2 560.841 159.137C565.047 157.156 566.259 157.422 565.296 157.397C563.378 157.348 560.699 156.348 558.938 154.546C557.862 153.447 558.78 153.706 559.961 158.119C561.097 162.364 562.056 168.88 562.365 178.334C562.986 197.272 560.918 224.387 555.592 261.264L609.038 268.983C614.526 230.985 617.111 200.214 616.336 176.566C615.948 164.726 614.698 153.773 612.126 144.162C609.6 134.719 605.313 124.736 597.55 116.795C589.099 108.152 578.249 103.714 566.69 103.415C556.085 103.141 546.186 106.349 537.827 110.287C521.318 118.065 503.329 132.345 484.607 149.698C446.643 184.886 397.538 240.552 338.788 308.331C279.625 376.587 209.898 458.063 129.658 546.479L169.646 582.769ZM555.592 261.264C544.968 334.827 529.746 400.71 516.113 455.952C502.775 510 490.159 556.678 486.146 588.17C484.263 602.949 483.236 620.701 489.485 635.065C493.142 643.472 499.656 651.572 509.923 656.196C519.569 660.54 529.391 660.387 537.359 658.977C552.449 656.307 569.432 647.536 587.413 636.159C606.177 624.286 629.089 607.539 656.7 585.86L623.353 543.387C596.284 564.64 575.03 580.091 558.539 590.526C541.264 601.457 531.9 605.104 527.948 605.803C526.395 606.078 528.522 605.349 532.098 606.959C536.295 608.849 538.365 612.059 539.002 613.524C539.211 614.005 537.844 609.669 539.713 594.996C543.206 567.584 554.469 525.909 568.54 468.89C582.317 413.065 598.035 345.17 609.038 268.983L555.592 261.264ZM656.7 585.86C725.679 531.704 803.496 458.105 872.242 384.821L832.858 347.876C765.4 419.787 689.604 491.372 623.353 543.387L656.7 585.86ZM872.242 384.821C948.608 303.414 1015.85 220.207 1046.98 163.092C1054.8 148.73 1061.08 134.715 1064.35 121.96C1067.3 110.458 1069.55 93.3715 1060.13 78.5755C1049.3 61.5834 1030.74 58.4669 1016.86 59.2532C1002.79 60.0496 986.5 64.8895 968.677 72.224L989.227 122.161C1005.03 115.656 1014.77 113.458 1019.91 113.167C1025.23 112.866 1019.06 114.612 1014.58 107.583C1011.5 102.751 1014.05 100.728 1012.05 108.54C1010.36 115.099 1006.43 124.648 999.559 137.251C971.906 187.992 908.687 267.041 832.858 347.876L872.242 384.821ZM968.677 72.224C881.826 107.966 811.735 162.715 780.941 221.159C765.291 250.86 758.808 283.651 768.854 315.307C778.941 347.093 804.003 372.429 840.563 390.542L864.536 342.156C836.892 328.459 824.73 312.856 820.324 298.974C815.878 284.962 817.636 267.356 828.715 246.331C851.376 203.323 908.691 155.304 989.227 122.161L968.677 72.224ZM840.563 390.542C845.206 392.843 852.779 395.486 860.367 397.991C868.68 400.736 879.239 404.02 891.221 407.626C915.217 414.846 945.463 423.52 975.996 432.027C1036.26 448.817 1100.16 465.669 1118.27 468.892L1127.73 415.727C1112.8 413.07 1051.95 397.132 990.489 380.008C960.159 371.558 930.297 362.993 906.782 355.916C895.008 352.373 884.961 349.244 877.296 346.714C873.458 345.446 870.351 344.373 867.994 343.507C865.39 342.549 864.466 342.12 864.536 342.156L840.563 390.542Z" fill="#02D8A5"/>
</svg>
